<svg xmlns="http://www.w3.org/2000/svg" xmlns:xlink="http://www.w3.org/1999/xlink" width="135" zoomAndPan="magnify" viewBox="0 0 101.25 37.5" height="50" preserveAspectRatio="xMidYMid meet" version="1.0"><defs><g/><clipPath id="f6b264b083"><path d="M 67.535156 8.300781 L 83.738281 8.300781 L 83.738281 29.765625 L 67.535156 29.765625 Z M 67.535156 8.300781 " clip-rule="nonzero"/></clipPath></defs><g fill="#213ac4" fill-opacity="1"><g transform="translate(16.690252, 25.01728)"><g><path d="M 1.359375 -13.65625 L 7.3125 -13.65625 C 9.0625 -13.65625 10.414062 -13.242188 11.375 -12.421875 C 12.34375 -11.597656 12.828125 -10.425781 12.828125 -8.90625 C 12.828125 -7.300781 12.34375 -6.054688 11.375 -5.171875 C 10.414062 -4.285156 9.0625 -3.84375 7.3125 -3.84375 L 4.84375 -3.84375 L 4.84375 0 L 1.359375 0 Z M 4.84375 -10.921875 L 4.84375 -6.578125 L 7.140625 -6.578125 C 7.910156 -6.578125 8.503906 -6.765625 8.921875 -7.140625 C 9.335938 -7.515625 9.546875 -8.0625 9.546875 -8.78125 C 9.546875 -9.476562 9.335938 -10.007812 8.921875 -10.375 C 8.503906 -10.738281 7.910156 -10.921875 7.140625 -10.921875 Z M 4.84375 -10.921875 "/></g></g></g><g fill="#213ac4" fill-opacity="1"><g transform="translate(29.961616, 25.01728)"><g><path d="M 6.21875 -10.640625 C 7.9375 -10.640625 9.320312 -10.144531 10.375 -9.15625 C 11.4375 -8.175781 11.96875 -6.878906 11.96875 -5.265625 C 11.96875 -3.648438 11.4375 -2.347656 10.375 -1.359375 C 9.320312 -0.378906 7.9375 0.109375 6.21875 0.109375 C 4.488281 0.109375 3.097656 -0.378906 2.046875 -1.359375 C 0.992188 -2.347656 0.46875 -3.648438 0.46875 -5.265625 C 0.46875 -6.878906 0.992188 -8.175781 2.046875 -9.15625 C 3.097656 -10.144531 4.488281 -10.640625 6.21875 -10.640625 Z M 6.21875 -7.96875 C 5.519531 -7.96875 4.953125 -7.710938 4.515625 -7.203125 C 4.078125 -6.691406 3.859375 -6.035156 3.859375 -5.234375 C 3.859375 -4.410156 4.078125 -3.75 4.515625 -3.25 C 4.953125 -2.75 5.519531 -2.5 6.21875 -2.5 C 6.914062 -2.5 7.476562 -2.75 7.90625 -3.25 C 8.34375 -3.75 8.5625 -4.410156 8.5625 -5.234375 C 8.5625 -6.035156 8.34375 -6.691406 7.90625 -7.203125 C 7.476562 -7.710938 6.914062 -7.96875 6.21875 -7.96875 Z M 6.21875 -7.96875 "/></g></g></g><g fill="#213ac4" fill-opacity="1"><g transform="translate(42.393758, 25.01728)"><g><path d="M 4.71875 -10.515625 L 4.71875 -8.75 C 5.457031 -10.007812 6.597656 -10.648438 8.140625 -10.671875 L 8.140625 -7.625 C 7.171875 -7.71875 6.378906 -7.554688 5.765625 -7.140625 C 5.160156 -6.734375 4.8125 -6.15625 4.71875 -5.40625 L 4.71875 0 L 1.34375 0 L 1.34375 -10.515625 Z M 4.71875 -10.515625 "/></g></g></g><g fill="#213ac4" fill-opacity="1"><g transform="translate(50.727391, 25.01728)"><g><path d="M 7.46875 -2.90625 L 8.140625 -0.5625 C 7.316406 -0.0820312 6.378906 0.15625 5.328125 0.15625 C 4.285156 0.15625 3.441406 -0.128906 2.796875 -0.703125 C 2.148438 -1.285156 1.828125 -2.113281 1.828125 -3.1875 L 1.828125 -7.828125 L 0.375 -7.828125 L 0.375 -10.03125 L 1.828125 -10.03125 L 1.828125 -12.953125 L 5.1875 -12.953125 L 5.1875 -10.046875 L 7.9375 -10.046875 L 7.9375 -7.828125 L 5.1875 -7.828125 L 5.1875 -3.703125 C 5.1875 -3.304688 5.265625 -3.007812 5.421875 -2.8125 C 5.585938 -2.625 5.835938 -2.539062 6.171875 -2.5625 C 6.484375 -2.5625 6.914062 -2.675781 7.46875 -2.90625 Z M 7.46875 -2.90625 "/></g></g></g><g fill="#213ac4" fill-opacity="1"><g transform="translate(59.217145, 25.01728)"><g><path d="M 6.0625 -10.671875 C 7.507812 -10.671875 8.632812 -10.335938 9.4375 -9.671875 C 10.238281 -9.003906 10.644531 -8.070312 10.65625 -6.875 L 10.65625 0 L 7.359375 0 L 7.359375 -1.203125 C 6.671875 -0.296875 5.597656 0.15625 4.140625 0.15625 C 3.035156 0.15625 2.15625 -0.144531 1.5 -0.75 C 0.851562 -1.363281 0.53125 -2.160156 0.53125 -3.140625 C 0.53125 -4.140625 0.875 -4.914062 1.5625 -5.46875 C 2.257812 -6.019531 3.257812 -6.304688 4.5625 -6.328125 L 7.34375 -6.328125 L 7.34375 -6.484375 C 7.34375 -7.003906 7.164062 -7.410156 6.8125 -7.703125 C 6.46875 -7.992188 5.957031 -8.140625 5.28125 -8.140625 C 4.332031 -8.140625 3.285156 -7.847656 2.140625 -7.265625 L 1.1875 -9.484375 C 2.894531 -10.273438 4.519531 -10.671875 6.0625 -10.671875 Z M 5.171875 -2.125 C 5.703125 -2.125 6.171875 -2.253906 6.578125 -2.515625 C 6.984375 -2.785156 7.238281 -3.140625 7.34375 -3.578125 L 7.34375 -4.515625 L 5.203125 -4.515625 C 4.191406 -4.515625 3.6875 -4.132812 3.6875 -3.375 C 3.6875 -2.988281 3.816406 -2.679688 4.078125 -2.453125 C 4.335938 -2.234375 4.703125 -2.125 5.171875 -2.125 Z M 5.171875 -2.125 "/></g></g></g><g clip-path="url(#f6b264b083)"><path fill="#213ac4" d="M 68.445312 10.65625 L 71.925781 10.65625 L 73.757812 8.804688 C 73.789062 8.773438 73.816406 8.75 73.847656 8.726562 C 74.136719 8.484375 74.589844 8.308594 74.945312 8.308594 L 82.90625 8.308594 C 83.40625 8.308594 83.816406 8.722656 83.816406 9.234375 L 83.816406 26.484375 C 83.816406 26.992188 83.40625 27.410156 82.90625 27.410156 L 81.863281 27.410156 L 81.863281 28.832031 C 81.863281 29.339844 81.453125 29.757812 80.953125 29.757812 L 68.445312 29.757812 C 67.945312 29.757812 67.535156 29.339844 67.535156 28.832031 L 67.535156 11.578125 C 67.535156 11.070312 67.945312 10.65625 68.445312 10.65625 Z M 74.035156 9.582031 L 70.757812 12.886719 L 73.867188 12.886719 C 73.960938 12.886719 74.039062 12.808594 74.039062 12.710938 L 74.039062 9.582031 Z M 83.078125 26.484375 L 83.078125 9.234375 C 83.078125 9.136719 83 9.058594 82.90625 9.058594 L 74.945312 9.058594 C 74.890625 9.058594 74.828125 9.066406 74.765625 9.085938 C 74.769531 9.128906 74.773438 9.179688 74.773438 9.230469 L 74.773438 12.707031 C 74.773438 13.21875 74.363281 13.632812 73.863281 13.632812 L 70.402344 13.632812 C 70.347656 13.632812 70.300781 13.632812 70.257812 13.625 C 70.242188 13.691406 70.230469 13.753906 70.230469 13.808594 L 70.230469 26.480469 C 70.230469 26.578125 70.308594 26.65625 70.402344 26.65625 L 82.90625 26.65625 C 83 26.660156 83.078125 26.578125 83.078125 26.484375 Z M 68.273438 28.832031 C 68.273438 28.925781 68.351562 29.007812 68.445312 29.007812 L 80.953125 29.007812 C 81.046875 29.007812 81.125 28.925781 81.125 28.832031 L 81.125 27.410156 L 70.402344 27.410156 C 69.898438 27.410156 69.488281 26.992188 69.488281 26.484375 L 69.488281 13.8125 C 69.488281 13.449219 69.660156 12.996094 69.902344 12.703125 C 69.925781 12.671875 69.953125 12.640625 69.984375 12.609375 L 71.179688 11.40625 L 68.445312 11.40625 C 68.351562 11.40625 68.273438 11.484375 68.273438 11.582031 Z M 72.304688 16.441406 L 81.003906 16.441406 C 81.179688 16.441406 81.320312 16.296875 81.320312 16.121094 C 81.320312 15.945312 81.175781 15.800781 81.003906 15.800781 L 72.304688 15.800781 C 72.128906 15.800781 71.988281 15.945312 71.988281 16.121094 C 71.988281 16.296875 72.128906 16.441406 72.304688 16.441406 Z M 72.304688 18.789062 L 81.003906 18.789062 C 81.179688 18.789062 81.320312 18.644531 81.320312 18.46875 C 81.320312 18.292969 81.175781 18.148438 81.003906 18.148438 L 72.304688 18.148438 C 72.128906 18.148438 71.988281 18.292969 71.988281 18.46875 C 71.988281 18.644531 72.128906 18.789062 72.304688 18.789062 Z M 72.304688 21.132812 L 81.003906 21.132812 C 81.179688 21.132812 81.320312 20.988281 81.320312 20.8125 C 81.320312 20.636719 81.175781 20.492188 81.003906 20.492188 L 72.304688 20.492188 C 72.128906 20.492188 71.988281 20.636719 71.988281 20.8125 C 71.988281 20.988281 72.128906 21.132812 72.304688 21.132812 Z M 77.273438 23.480469 L 81.003906 23.480469 C 81.179688 23.480469 81.320312 23.335938 81.320312 23.160156 C 81.320312 22.980469 81.175781 22.839844 81.003906 22.839844 L 77.273438 22.839844 C 77.097656 22.839844 76.957031 22.984375 76.957031 23.160156 C 76.957031 23.335938 77.097656 23.480469 77.273438 23.480469 Z M 77.273438 23.480469 " fill-opacity="1" fill-rule="nonzero"/></g></svg>